<mxfile host="Electron" modified="2024-03-01T11:59:37.123Z" agent="Mozilla/5.0 (Windows NT 10.0; Win64; x64) AppleWebKit/537.36 (KHTML, like Gecko) draw.io/23.0.2 Chrome/120.0.6099.109 Electron/28.1.0 Safari/537.36" etag="GT_DZXiqb92jDdtanpf1" version="23.0.2" type="device" pages="5">
  <diagram name="Página-1" id="SwUiYtZ7lrBCP-FHKXkh">
    <mxGraphModel dx="933" dy="297" grid="1" gridSize="10" guides="1" tooltips="1" connect="1" arrows="1" fold="1" page="1" pageScale="1" pageWidth="827" pageHeight="1169" math="0" shadow="0">
      <root>
        <mxCell id="0" />
        <mxCell id="1" parent="0" />
        <mxCell id="51tS8TimHsnjV0SPBia5-3" value="Programa" style="swimlane;fontStyle=0;childLayout=stackLayout;horizontal=1;startSize=26;fillColor=none;horizontalStack=0;resizeParent=1;resizeParentMax=0;resizeLast=0;collapsible=1;marginBottom=0;whiteSpace=wrap;html=1;" vertex="1" parent="1">
          <mxGeometry x="70" y="230" width="160" height="104" as="geometry" />
        </mxCell>
        <mxCell id="51tS8TimHsnjV0SPBia5-4" value="+ designação: string" style="text;strokeColor=none;fillColor=none;align=left;verticalAlign=top;spacingLeft=4;spacingRight=4;overflow=hidden;rotatable=0;points=[[0,0.5],[1,0.5]];portConstraint=eastwest;whiteSpace=wrap;html=1;" vertex="1" parent="51tS8TimHsnjV0SPBia5-3">
          <mxGeometry y="26" width="160" height="26" as="geometry" />
        </mxCell>
        <mxCell id="51tS8TimHsnjV0SPBia5-5" value="+ duração: int" style="text;strokeColor=none;fillColor=none;align=left;verticalAlign=top;spacingLeft=4;spacingRight=4;overflow=hidden;rotatable=0;points=[[0,0.5],[1,0.5]];portConstraint=eastwest;whiteSpace=wrap;html=1;" vertex="1" parent="51tS8TimHsnjV0SPBia5-3">
          <mxGeometry y="52" width="160" height="26" as="geometry" />
        </mxCell>
        <mxCell id="51tS8TimHsnjV0SPBia5-6" value="+ classificação etária: string" style="text;strokeColor=none;fillColor=none;align=left;verticalAlign=top;spacingLeft=4;spacingRight=4;overflow=hidden;rotatable=0;points=[[0,0.5],[1,0.5]];portConstraint=eastwest;whiteSpace=wrap;html=1;" vertex="1" parent="51tS8TimHsnjV0SPBia5-3">
          <mxGeometry y="78" width="160" height="26" as="geometry" />
        </mxCell>
        <mxCell id="51tS8TimHsnjV0SPBia5-8" value="Uma estação de televisão pretende um sistema de informação simples&amp;nbsp; que a auxilie a armazenar e divulgar a sua programação diária. •Quem consultar&amp;nbsp; a programação por exemplo através de um browser,&amp;nbsp; deverá poder visualizar, paracadadia, a sequência dos programas, com a indicação da hora de início e da duração de cada programa. •Também se pretende que o espectador possa visualizar o tipo de programação (Noticias, Filme, etc.) e a correspondente classificação etária." style="text;html=1;strokeColor=none;fillColor=none;align=center;verticalAlign=middle;whiteSpace=wrap;rounded=0;" vertex="1" parent="1">
          <mxGeometry x="40" y="70" width="490" height="130" as="geometry" />
        </mxCell>
        <mxCell id="51tS8TimHsnjV0SPBia5-13" style="edgeStyle=orthogonalEdgeStyle;rounded=0;orthogonalLoop=1;jettySize=auto;html=1;" edge="1" parent="1" source="51tS8TimHsnjV0SPBia5-9" target="51tS8TimHsnjV0SPBia5-4">
          <mxGeometry relative="1" as="geometry" />
        </mxCell>
        <mxCell id="51tS8TimHsnjV0SPBia5-9" value="Tipo Programa" style="swimlane;fontStyle=0;childLayout=stackLayout;horizontal=1;startSize=26;fillColor=none;horizontalStack=0;resizeParent=1;resizeParentMax=0;resizeLast=0;collapsible=1;marginBottom=0;whiteSpace=wrap;html=1;" vertex="1" parent="1">
          <mxGeometry x="370" y="230" width="160" height="78" as="geometry" />
        </mxCell>
        <mxCell id="51tS8TimHsnjV0SPBia5-10" value="+ designação: string" style="text;strokeColor=none;fillColor=none;align=left;verticalAlign=top;spacingLeft=4;spacingRight=4;overflow=hidden;rotatable=0;points=[[0,0.5],[1,0.5]];portConstraint=eastwest;whiteSpace=wrap;html=1;" vertex="1" parent="51tS8TimHsnjV0SPBia5-9">
          <mxGeometry y="26" width="160" height="26" as="geometry" />
        </mxCell>
        <mxCell id="51tS8TimHsnjV0SPBia5-11" value="+ id_designação: int" style="text;strokeColor=none;fillColor=none;align=left;verticalAlign=top;spacingLeft=4;spacingRight=4;overflow=hidden;rotatable=0;points=[[0,0.5],[1,0.5]];portConstraint=eastwest;whiteSpace=wrap;html=1;" vertex="1" parent="51tS8TimHsnjV0SPBia5-9">
          <mxGeometry y="52" width="160" height="26" as="geometry" />
        </mxCell>
        <mxCell id="51tS8TimHsnjV0SPBia5-14" value="1.. 1" style="text;html=1;strokeColor=none;fillColor=none;align=center;verticalAlign=middle;whiteSpace=wrap;rounded=0;" vertex="1" parent="1">
          <mxGeometry x="325" y="245" width="60" height="30" as="geometry" />
        </mxCell>
        <mxCell id="51tS8TimHsnjV0SPBia5-15" value="0.. *" style="text;html=1;strokeColor=none;fillColor=none;align=center;verticalAlign=middle;whiteSpace=wrap;rounded=0;" vertex="1" parent="1">
          <mxGeometry x="214" y="266" width="60" height="30" as="geometry" />
        </mxCell>
        <mxCell id="51tS8TimHsnjV0SPBia5-16" value="Categoria" style="swimlane;fontStyle=0;childLayout=stackLayout;horizontal=1;startSize=26;fillColor=none;horizontalStack=0;resizeParent=1;resizeParentMax=0;resizeLast=0;collapsible=1;marginBottom=0;whiteSpace=wrap;html=1;" vertex="1" parent="1">
          <mxGeometry x="80" y="460" width="140" height="52" as="geometry" />
        </mxCell>
        <mxCell id="51tS8TimHsnjV0SPBia5-17" value="+ dia_mes: date" style="text;strokeColor=none;fillColor=none;align=left;verticalAlign=top;spacingLeft=4;spacingRight=4;overflow=hidden;rotatable=0;points=[[0,0.5],[1,0.5]];portConstraint=eastwest;whiteSpace=wrap;html=1;" vertex="1" parent="51tS8TimHsnjV0SPBia5-16">
          <mxGeometry y="26" width="140" height="26" as="geometry" />
        </mxCell>
        <mxCell id="51tS8TimHsnjV0SPBia5-20" style="edgeStyle=orthogonalEdgeStyle;rounded=0;orthogonalLoop=1;jettySize=auto;html=1;entryX=0.5;entryY=1.038;entryDx=0;entryDy=0;entryPerimeter=0;" edge="1" parent="1" source="51tS8TimHsnjV0SPBia5-16" target="51tS8TimHsnjV0SPBia5-6">
          <mxGeometry relative="1" as="geometry" />
        </mxCell>
        <mxCell id="51tS8TimHsnjV0SPBia5-21" value="0.. *" style="text;html=1;strokeColor=none;fillColor=none;align=center;verticalAlign=middle;whiteSpace=wrap;rounded=0;" vertex="1" parent="1">
          <mxGeometry x="136" y="437" width="60" height="30" as="geometry" />
        </mxCell>
        <mxCell id="51tS8TimHsnjV0SPBia5-22" value="0.. *" style="text;html=1;strokeColor=none;fillColor=none;align=center;verticalAlign=middle;whiteSpace=wrap;rounded=0;" vertex="1" parent="1">
          <mxGeometry x="103" y="332" width="60" height="30" as="geometry" />
        </mxCell>
        <mxCell id="51tS8TimHsnjV0SPBia5-23" value="Programação" style="swimlane;fontStyle=0;childLayout=stackLayout;horizontal=1;startSize=26;fillColor=none;horizontalStack=0;resizeParent=1;resizeParentMax=0;resizeLast=0;collapsible=1;marginBottom=0;whiteSpace=wrap;html=1;" vertex="1" parent="1">
          <mxGeometry x="245" y="370" width="140" height="52" as="geometry" />
        </mxCell>
        <mxCell id="51tS8TimHsnjV0SPBia5-24" value="+ hora_inicio: date" style="text;strokeColor=none;fillColor=none;align=left;verticalAlign=top;spacingLeft=4;spacingRight=4;overflow=hidden;rotatable=0;points=[[0,0.5],[1,0.5]];portConstraint=eastwest;whiteSpace=wrap;html=1;" vertex="1" parent="51tS8TimHsnjV0SPBia5-23">
          <mxGeometry y="26" width="140" height="26" as="geometry" />
        </mxCell>
        <mxCell id="51tS8TimHsnjV0SPBia5-27" value="" style="endArrow=none;html=1;rounded=0;" edge="1" parent="1">
          <mxGeometry width="50" height="50" relative="1" as="geometry">
            <mxPoint x="150" y="400" as="sourcePoint" />
            <mxPoint x="245" y="400" as="targetPoint" />
          </mxGeometry>
        </mxCell>
      </root>
    </mxGraphModel>
  </diagram>
  <diagram id="jgLi_0V6JulaK6nbOTWS" name="Página-2">
    <mxGraphModel dx="933" dy="297" grid="1" gridSize="10" guides="1" tooltips="1" connect="1" arrows="1" fold="1" page="1" pageScale="1" pageWidth="827" pageHeight="1169" math="0" shadow="0">
      <root>
        <mxCell id="0" />
        <mxCell id="1" parent="0" />
        <mxCell id="28KUV6tqrAbdRGbfrBRq-1" value="Uma organização pretende uma aplicação de recursos humanos que&amp;nbsp; armazene os resultados das avaliações periódicas que são efetuadas aos seus funcionários. •Cada funcionário é avaliado por vários avaliadores, sendo que cada avaliador atribui uma nota para cada objetivo previamente atribuído ao funcionário avaliado. •Sobre cada funcionário, para além do seu nome e nº de contribuinte, é necessário saber qual o seu superior hierárquico.&amp;nbsp; •Essa informação é relevante para que, caso o responsável pela avaliação assim o deseje, o sistema possa impedir que um funcionário possa avaliar o seu hierárquico direto." style="text;html=1;strokeColor=none;fillColor=none;align=center;verticalAlign=middle;whiteSpace=wrap;rounded=0;" vertex="1" parent="1">
          <mxGeometry x="40" y="30" width="530" height="270" as="geometry" />
        </mxCell>
        <mxCell id="28KUV6tqrAbdRGbfrBRq-2" value="Funcionário" style="swimlane;fontStyle=0;childLayout=stackLayout;horizontal=1;startSize=26;fillColor=none;horizontalStack=0;resizeParent=1;resizeParentMax=0;resizeLast=0;collapsible=1;marginBottom=0;whiteSpace=wrap;html=1;" vertex="1" parent="1">
          <mxGeometry x="110" y="350" width="140" height="78" as="geometry" />
        </mxCell>
        <mxCell id="28KUV6tqrAbdRGbfrBRq-3" value="+ nome: string" style="text;strokeColor=none;fillColor=none;align=left;verticalAlign=top;spacingLeft=4;spacingRight=4;overflow=hidden;rotatable=0;points=[[0,0.5],[1,0.5]];portConstraint=eastwest;whiteSpace=wrap;html=1;" vertex="1" parent="28KUV6tqrAbdRGbfrBRq-2">
          <mxGeometry y="26" width="140" height="26" as="geometry" />
        </mxCell>
        <mxCell id="28KUV6tqrAbdRGbfrBRq-4" value="+ num_contribuinte: int" style="text;strokeColor=none;fillColor=none;align=left;verticalAlign=top;spacingLeft=4;spacingRight=4;overflow=hidden;rotatable=0;points=[[0,0.5],[1,0.5]];portConstraint=eastwest;whiteSpace=wrap;html=1;" vertex="1" parent="28KUV6tqrAbdRGbfrBRq-2">
          <mxGeometry y="52" width="140" height="26" as="geometry" />
        </mxCell>
        <mxCell id="28KUV6tqrAbdRGbfrBRq-6" value="Avaliador" style="swimlane;fontStyle=0;childLayout=stackLayout;horizontal=1;startSize=26;fillColor=none;horizontalStack=0;resizeParent=1;resizeParentMax=0;resizeLast=0;collapsible=1;marginBottom=0;whiteSpace=wrap;html=1;" vertex="1" parent="1">
          <mxGeometry x="110" y="540" width="140" height="52" as="geometry" />
        </mxCell>
        <mxCell id="28KUV6tqrAbdRGbfrBRq-7" value="+ area_avaliacao: string" style="text;strokeColor=none;fillColor=none;align=left;verticalAlign=top;spacingLeft=4;spacingRight=4;overflow=hidden;rotatable=0;points=[[0,0.5],[1,0.5]];portConstraint=eastwest;whiteSpace=wrap;html=1;" vertex="1" parent="28KUV6tqrAbdRGbfrBRq-6">
          <mxGeometry y="26" width="140" height="26" as="geometry" />
        </mxCell>
        <mxCell id="28KUV6tqrAbdRGbfrBRq-10" style="edgeStyle=orthogonalEdgeStyle;rounded=0;orthogonalLoop=1;jettySize=auto;html=1;entryX=0.5;entryY=0.962;entryDx=0;entryDy=0;entryPerimeter=0;" edge="1" parent="1" source="28KUV6tqrAbdRGbfrBRq-6" target="28KUV6tqrAbdRGbfrBRq-4">
          <mxGeometry relative="1" as="geometry" />
        </mxCell>
        <mxCell id="28KUV6tqrAbdRGbfrBRq-11" value="Objetivo" style="swimlane;fontStyle=0;childLayout=stackLayout;horizontal=1;startSize=26;fillColor=none;horizontalStack=0;resizeParent=1;resizeParentMax=0;resizeLast=0;collapsible=1;marginBottom=0;whiteSpace=wrap;html=1;" vertex="1" parent="1">
          <mxGeometry x="390" y="350" width="140" height="78" as="geometry" />
        </mxCell>
        <mxCell id="28KUV6tqrAbdRGbfrBRq-13" value="+ cod_objetivo: int" style="text;strokeColor=none;fillColor=none;align=left;verticalAlign=top;spacingLeft=4;spacingRight=4;overflow=hidden;rotatable=0;points=[[0,0.5],[1,0.5]];portConstraint=eastwest;whiteSpace=wrap;html=1;" vertex="1" parent="28KUV6tqrAbdRGbfrBRq-11">
          <mxGeometry y="26" width="140" height="26" as="geometry" />
        </mxCell>
        <mxCell id="28KUV6tqrAbdRGbfrBRq-14" value="+ designacao: string" style="text;strokeColor=none;fillColor=none;align=left;verticalAlign=top;spacingLeft=4;spacingRight=4;overflow=hidden;rotatable=0;points=[[0,0.5],[1,0.5]];portConstraint=eastwest;whiteSpace=wrap;html=1;" vertex="1" parent="28KUV6tqrAbdRGbfrBRq-11">
          <mxGeometry y="52" width="140" height="26" as="geometry" />
        </mxCell>
        <mxCell id="28KUV6tqrAbdRGbfrBRq-15" style="edgeStyle=orthogonalEdgeStyle;rounded=0;orthogonalLoop=1;jettySize=auto;html=1;entryX=0;entryY=0.5;entryDx=0;entryDy=0;" edge="1" parent="1" source="28KUV6tqrAbdRGbfrBRq-3" target="28KUV6tqrAbdRGbfrBRq-11">
          <mxGeometry relative="1" as="geometry" />
        </mxCell>
        <mxCell id="Idg_1rAEBvzae61VXQBn-1" value="1.. 1" style="text;html=1;strokeColor=none;fillColor=none;align=center;verticalAlign=middle;whiteSpace=wrap;rounded=0;" vertex="1" parent="1">
          <mxGeometry x="236" y="365" width="60" height="30" as="geometry" />
        </mxCell>
        <mxCell id="Idg_1rAEBvzae61VXQBn-2" value="0.. *" style="text;html=1;strokeColor=none;fillColor=none;align=center;verticalAlign=middle;whiteSpace=wrap;rounded=0;" vertex="1" parent="1">
          <mxGeometry x="341" y="388" width="60" height="30" as="geometry" />
        </mxCell>
        <mxCell id="Idg_1rAEBvzae61VXQBn-3" value="" style="endArrow=none;html=1;rounded=0;exitX=1;exitY=0.25;exitDx=0;exitDy=0;" edge="1" parent="1" source="28KUV6tqrAbdRGbfrBRq-6">
          <mxGeometry width="50" height="50" relative="1" as="geometry">
            <mxPoint x="390" y="450" as="sourcePoint" />
            <mxPoint x="467" y="430" as="targetPoint" />
            <Array as="points">
              <mxPoint x="467" y="553" />
            </Array>
          </mxGeometry>
        </mxCell>
      </root>
    </mxGraphModel>
  </diagram>
  <diagram id="Xja372lb37qH0zgYjWJM" name="Página-3">
    <mxGraphModel dx="771" dy="827" grid="1" gridSize="10" guides="1" tooltips="1" connect="1" arrows="1" fold="1" page="1" pageScale="1" pageWidth="827" pageHeight="1169" math="0" shadow="0">
      <root>
        <mxCell id="0" />
        <mxCell id="1" parent="0" />
        <mxCell id="fGl0vAiu0E1JJBTV47-0-1" value="CD" style="swimlane;fontStyle=0;childLayout=stackLayout;horizontal=1;startSize=26;fillColor=none;horizontalStack=0;resizeParent=1;resizeParentMax=0;resizeLast=0;collapsible=1;marginBottom=0;whiteSpace=wrap;html=1;" vertex="1" parent="1">
          <mxGeometry x="30" y="90" width="140" height="130" as="geometry" />
        </mxCell>
        <mxCell id="fGl0vAiu0E1JJBTV47-0-2" value="+ título: string" style="text;strokeColor=none;fillColor=none;align=left;verticalAlign=top;spacingLeft=4;spacingRight=4;overflow=hidden;rotatable=0;points=[[0,0.5],[1,0.5]];portConstraint=eastwest;whiteSpace=wrap;html=1;" vertex="1" parent="fGl0vAiu0E1JJBTV47-0-1">
          <mxGeometry y="26" width="140" height="26" as="geometry" />
        </mxCell>
        <mxCell id="fGl0vAiu0E1JJBTV47-0-3" value="+ coletênea: boolean" style="text;strokeColor=none;fillColor=none;align=left;verticalAlign=top;spacingLeft=4;spacingRight=4;overflow=hidden;rotatable=0;points=[[0,0.5],[1,0.5]];portConstraint=eastwest;whiteSpace=wrap;html=1;" vertex="1" parent="fGl0vAiu0E1JJBTV47-0-1">
          <mxGeometry y="52" width="140" height="26" as="geometry" />
        </mxCell>
        <mxCell id="fGl0vAiu0E1JJBTV47-0-4" value="+ músicos: string&lt;br&gt;&lt;br&gt;+ faixas: faixa" style="text;strokeColor=none;fillColor=none;align=left;verticalAlign=top;spacingLeft=4;spacingRight=4;overflow=hidden;rotatable=0;points=[[0,0.5],[1,0.5]];portConstraint=eastwest;whiteSpace=wrap;html=1;" vertex="1" parent="fGl0vAiu0E1JJBTV47-0-1">
          <mxGeometry y="78" width="140" height="52" as="geometry" />
        </mxCell>
        <mxCell id="fGl0vAiu0E1JJBTV47-0-5" value="Faixa" style="swimlane;fontStyle=0;childLayout=stackLayout;horizontal=1;startSize=26;fillColor=none;horizontalStack=0;resizeParent=1;resizeParentMax=0;resizeLast=0;collapsible=1;marginBottom=0;whiteSpace=wrap;html=1;" vertex="1" parent="1">
          <mxGeometry x="330" y="90" width="140" height="78" as="geometry" />
        </mxCell>
        <mxCell id="fGl0vAiu0E1JJBTV47-0-6" value="+ nome: string" style="text;strokeColor=none;fillColor=none;align=left;verticalAlign=top;spacingLeft=4;spacingRight=4;overflow=hidden;rotatable=0;points=[[0,0.5],[1,0.5]];portConstraint=eastwest;whiteSpace=wrap;html=1;" vertex="1" parent="fGl0vAiu0E1JJBTV47-0-5">
          <mxGeometry y="26" width="140" height="26" as="geometry" />
        </mxCell>
        <mxCell id="fGl0vAiu0E1JJBTV47-0-7" value="+ duração: int" style="text;strokeColor=none;fillColor=none;align=left;verticalAlign=top;spacingLeft=4;spacingRight=4;overflow=hidden;rotatable=0;points=[[0,0.5],[1,0.5]];portConstraint=eastwest;whiteSpace=wrap;html=1;" vertex="1" parent="fGl0vAiu0E1JJBTV47-0-5">
          <mxGeometry y="52" width="140" height="26" as="geometry" />
        </mxCell>
        <mxCell id="zvS9UAgpRLUikVQXfiGK-1" style="edgeStyle=orthogonalEdgeStyle;rounded=0;orthogonalLoop=1;jettySize=auto;html=1;" edge="1" parent="1" source="fGl0vAiu0E1JJBTV47-0-6" target="fGl0vAiu0E1JJBTV47-0-2">
          <mxGeometry relative="1" as="geometry" />
        </mxCell>
        <mxCell id="C17wM4GbHpA5wLOxuvf4-1" value="1.. *" style="text;html=1;strokeColor=none;fillColor=none;align=center;verticalAlign=middle;whiteSpace=wrap;rounded=0;" vertex="1" parent="1">
          <mxGeometry x="160" y="105" width="60" height="30" as="geometry" />
        </mxCell>
        <mxCell id="C17wM4GbHpA5wLOxuvf4-2" value="1.. *" style="text;html=1;strokeColor=none;fillColor=none;align=center;verticalAlign=middle;whiteSpace=wrap;rounded=0;" vertex="1" parent="1">
          <mxGeometry x="286" y="124" width="60" height="30" as="geometry" />
        </mxCell>
      </root>
    </mxGraphModel>
  </diagram>
  <diagram id="4tUdLnlafhVelyuuzkN1" name="Página-4">
    <mxGraphModel dx="532" dy="570" grid="1" gridSize="10" guides="1" tooltips="1" connect="1" arrows="1" fold="1" page="1" pageScale="1" pageWidth="827" pageHeight="1169" math="0" shadow="0">
      <root>
        <mxCell id="0" />
        <mxCell id="1" parent="0" />
        <mxCell id="uxv835m3FM5c3v6oV_gw-17" style="edgeStyle=orthogonalEdgeStyle;rounded=0;orthogonalLoop=1;jettySize=auto;html=1;entryX=0.5;entryY=0;entryDx=0;entryDy=0;" edge="1" parent="1" source="uxv835m3FM5c3v6oV_gw-1" target="uxv835m3FM5c3v6oV_gw-5">
          <mxGeometry relative="1" as="geometry" />
        </mxCell>
        <mxCell id="uxv835m3FM5c3v6oV_gw-1" value="Pasta de trabalho" style="swimlane;fontStyle=0;childLayout=stackLayout;horizontal=1;startSize=26;fillColor=none;horizontalStack=0;resizeParent=1;resizeParentMax=0;resizeLast=0;collapsible=1;marginBottom=0;whiteSpace=wrap;html=1;" vertex="1" parent="1">
          <mxGeometry x="115" y="230" width="140" height="52" as="geometry" />
        </mxCell>
        <mxCell id="uxv835m3FM5c3v6oV_gw-2" value="+ mes_ano: string" style="text;strokeColor=none;fillColor=none;align=left;verticalAlign=top;spacingLeft=4;spacingRight=4;overflow=hidden;rotatable=0;points=[[0,0.5],[1,0.5]];portConstraint=eastwest;whiteSpace=wrap;html=1;" vertex="1" parent="uxv835m3FM5c3v6oV_gw-1">
          <mxGeometry y="26" width="140" height="26" as="geometry" />
        </mxCell>
        <mxCell id="uxv835m3FM5c3v6oV_gw-5" value="Reunião" style="swimlane;fontStyle=0;childLayout=stackLayout;horizontal=1;startSize=26;fillColor=none;horizontalStack=0;resizeParent=1;resizeParentMax=0;resizeLast=0;collapsible=1;marginBottom=0;whiteSpace=wrap;html=1;" vertex="1" parent="1">
          <mxGeometry x="100" y="350" width="170" height="106" as="geometry" />
        </mxCell>
        <mxCell id="uxv835m3FM5c3v6oV_gw-6" value="+ horario_reuniao: datetime&lt;br&gt;&lt;br&gt;+ data_reuniao: date" style="text;strokeColor=none;fillColor=none;align=left;verticalAlign=top;spacingLeft=4;spacingRight=4;overflow=hidden;rotatable=0;points=[[0,0.5],[1,0.5]];portConstraint=eastwest;whiteSpace=wrap;html=1;" vertex="1" parent="uxv835m3FM5c3v6oV_gw-5">
          <mxGeometry y="26" width="170" height="54" as="geometry" />
        </mxCell>
        <mxCell id="uxv835m3FM5c3v6oV_gw-7" value="+ id_sala: int&amp;nbsp;" style="text;strokeColor=none;fillColor=none;align=left;verticalAlign=top;spacingLeft=4;spacingRight=4;overflow=hidden;rotatable=0;points=[[0,0.5],[1,0.5]];portConstraint=eastwest;whiteSpace=wrap;html=1;" vertex="1" parent="uxv835m3FM5c3v6oV_gw-5">
          <mxGeometry y="80" width="170" height="26" as="geometry" />
        </mxCell>
        <mxCell id="uxv835m3FM5c3v6oV_gw-9" value="Controlo_funcionario" style="swimlane;fontStyle=0;childLayout=stackLayout;horizontal=1;startSize=26;fillColor=none;horizontalStack=0;resizeParent=1;resizeParentMax=0;resizeLast=0;collapsible=1;marginBottom=0;whiteSpace=wrap;html=1;" vertex="1" parent="1">
          <mxGeometry x="400" y="204" width="140" height="104" as="geometry" />
        </mxCell>
        <mxCell id="uxv835m3FM5c3v6oV_gw-10" value="+ nome: string" style="text;strokeColor=none;fillColor=none;align=left;verticalAlign=top;spacingLeft=4;spacingRight=4;overflow=hidden;rotatable=0;points=[[0,0.5],[1,0.5]];portConstraint=eastwest;whiteSpace=wrap;html=1;" vertex="1" parent="uxv835m3FM5c3v6oV_gw-9">
          <mxGeometry y="26" width="140" height="26" as="geometry" />
        </mxCell>
        <mxCell id="uxv835m3FM5c3v6oV_gw-11" value="+ cargo: string" style="text;strokeColor=none;fillColor=none;align=left;verticalAlign=top;spacingLeft=4;spacingRight=4;overflow=hidden;rotatable=0;points=[[0,0.5],[1,0.5]];portConstraint=eastwest;whiteSpace=wrap;html=1;" vertex="1" parent="uxv835m3FM5c3v6oV_gw-9">
          <mxGeometry y="52" width="140" height="26" as="geometry" />
        </mxCell>
        <mxCell id="uxv835m3FM5c3v6oV_gw-12" value="+ ramo: string" style="text;strokeColor=none;fillColor=none;align=left;verticalAlign=top;spacingLeft=4;spacingRight=4;overflow=hidden;rotatable=0;points=[[0,0.5],[1,0.5]];portConstraint=eastwest;whiteSpace=wrap;html=1;" vertex="1" parent="uxv835m3FM5c3v6oV_gw-9">
          <mxGeometry y="78" width="140" height="26" as="geometry" />
        </mxCell>
        <mxCell id="uxv835m3FM5c3v6oV_gw-13" value="Sala" style="swimlane;fontStyle=0;childLayout=stackLayout;horizontal=1;startSize=26;fillColor=none;horizontalStack=0;resizeParent=1;resizeParentMax=0;resizeLast=0;collapsible=1;marginBottom=0;whiteSpace=wrap;html=1;" vertex="1" parent="1">
          <mxGeometry x="460" y="364" width="140" height="78" as="geometry" />
        </mxCell>
        <mxCell id="uxv835m3FM5c3v6oV_gw-14" value="+ id_sala: int" style="text;strokeColor=none;fillColor=none;align=left;verticalAlign=top;spacingLeft=4;spacingRight=4;overflow=hidden;rotatable=0;points=[[0,0.5],[1,0.5]];portConstraint=eastwest;whiteSpace=wrap;html=1;" vertex="1" parent="uxv835m3FM5c3v6oV_gw-13">
          <mxGeometry y="26" width="140" height="26" as="geometry" />
        </mxCell>
        <mxCell id="uxv835m3FM5c3v6oV_gw-15" value="+ quant_lugares: int" style="text;strokeColor=none;fillColor=none;align=left;verticalAlign=top;spacingLeft=4;spacingRight=4;overflow=hidden;rotatable=0;points=[[0,0.5],[1,0.5]];portConstraint=eastwest;whiteSpace=wrap;html=1;" vertex="1" parent="uxv835m3FM5c3v6oV_gw-13">
          <mxGeometry y="52" width="140" height="26" as="geometry" />
        </mxCell>
        <mxCell id="uxv835m3FM5c3v6oV_gw-20" value="" style="endArrow=none;html=1;rounded=0;entryX=0.422;entryY=0;entryDx=0;entryDy=0;entryPerimeter=0;" edge="1" parent="1" target="uxv835m3FM5c3v6oV_gw-21">
          <mxGeometry width="50" height="50" relative="1" as="geometry">
            <mxPoint x="360" y="402" as="sourcePoint" />
            <mxPoint x="359.0799999999999" y="472" as="targetPoint" />
          </mxGeometry>
        </mxCell>
        <mxCell id="uxv835m3FM5c3v6oV_gw-21" value="Relocação" style="swimlane;fontStyle=0;childLayout=stackLayout;horizontal=1;startSize=26;fillColor=none;horizontalStack=0;resizeParent=1;resizeParentMax=0;resizeLast=0;collapsible=1;marginBottom=0;whiteSpace=wrap;html=1;" vertex="1" parent="1">
          <mxGeometry x="300" y="470" width="140" height="104" as="geometry" />
        </mxCell>
        <mxCell id="uxv835m3FM5c3v6oV_gw-22" value="+ nova_sala: int" style="text;strokeColor=none;fillColor=none;align=left;verticalAlign=top;spacingLeft=4;spacingRight=4;overflow=hidden;rotatable=0;points=[[0,0.5],[1,0.5]];portConstraint=eastwest;whiteSpace=wrap;html=1;" vertex="1" parent="uxv835m3FM5c3v6oV_gw-21">
          <mxGeometry y="26" width="140" height="26" as="geometry" />
        </mxCell>
        <mxCell id="uxv835m3FM5c3v6oV_gw-23" value="+ nova_data: date" style="text;strokeColor=none;fillColor=none;align=left;verticalAlign=top;spacingLeft=4;spacingRight=4;overflow=hidden;rotatable=0;points=[[0,0.5],[1,0.5]];portConstraint=eastwest;whiteSpace=wrap;html=1;" vertex="1" parent="uxv835m3FM5c3v6oV_gw-21">
          <mxGeometry y="52" width="140" height="26" as="geometry" />
        </mxCell>
        <mxCell id="uxv835m3FM5c3v6oV_gw-24" value="+ novo_horario: date" style="text;strokeColor=none;fillColor=none;align=left;verticalAlign=top;spacingLeft=4;spacingRight=4;overflow=hidden;rotatable=0;points=[[0,0.5],[1,0.5]];portConstraint=eastwest;whiteSpace=wrap;html=1;" vertex="1" parent="uxv835m3FM5c3v6oV_gw-21">
          <mxGeometry y="78" width="140" height="26" as="geometry" />
        </mxCell>
        <mxCell id="uxv835m3FM5c3v6oV_gw-27" style="edgeStyle=orthogonalEdgeStyle;rounded=0;orthogonalLoop=1;jettySize=auto;html=1;entryX=0;entryY=0.5;entryDx=0;entryDy=0;" edge="1" parent="1" source="uxv835m3FM5c3v6oV_gw-6" target="uxv835m3FM5c3v6oV_gw-14">
          <mxGeometry relative="1" as="geometry">
            <mxPoint x="440" y="372" as="targetPoint" />
          </mxGeometry>
        </mxCell>
        <mxCell id="uxv835m3FM5c3v6oV_gw-29" value="" style="endArrow=none;html=1;rounded=0;entryX=0.999;entryY=-0.178;entryDx=0;entryDy=0;entryPerimeter=0;exitX=0.003;exitY=0.849;exitDx=0;exitDy=0;exitPerimeter=0;" edge="1" parent="1" source="uxv835m3FM5c3v6oV_gw-10" target="uxv835m3FM5c3v6oV_gw-2">
          <mxGeometry width="50" height="50" relative="1" as="geometry">
            <mxPoint x="340" y="390" as="sourcePoint" />
            <mxPoint x="390" y="340" as="targetPoint" />
          </mxGeometry>
        </mxCell>
        <mxCell id="SGj652YnKcZlrUeCalTC-1" value="0.. *" style="text;html=1;strokeColor=none;fillColor=none;align=center;verticalAlign=middle;whiteSpace=wrap;rounded=0;" vertex="1" parent="1">
          <mxGeometry x="175" y="324" width="60" height="30" as="geometry" />
        </mxCell>
        <mxCell id="SGj652YnKcZlrUeCalTC-2" value="&lt;span style=&quot;color: rgb(0, 0, 0); font-family: Helvetica; font-size: 12px; font-style: normal; font-variant-ligatures: normal; font-variant-caps: normal; font-weight: 400; letter-spacing: normal; orphans: 2; text-align: center; text-indent: 0px; text-transform: none; widows: 2; word-spacing: 0px; -webkit-text-stroke-width: 0px; background-color: rgb(251, 251, 251); text-decoration-thickness: initial; text-decoration-style: initial; text-decoration-color: initial; float: none; display: inline !important;&quot;&gt;1.. 1&lt;/span&gt;" style="text;whiteSpace=wrap;html=1;" vertex="1" parent="1">
          <mxGeometry x="191" y="280" width="50" height="40" as="geometry" />
        </mxCell>
        <mxCell id="SGj652YnKcZlrUeCalTC-3" value="&lt;span style=&quot;color: rgb(0, 0, 0); font-family: Helvetica; font-size: 12px; font-style: normal; font-variant-ligatures: normal; font-variant-caps: normal; font-weight: 400; letter-spacing: normal; orphans: 2; text-align: center; text-indent: 0px; text-transform: none; widows: 2; word-spacing: 0px; -webkit-text-stroke-width: 0px; background-color: rgb(251, 251, 251); text-decoration-thickness: initial; text-decoration-style: initial; text-decoration-color: initial; float: none; display: inline !important;&quot;&gt;1.. 1&lt;/span&gt;" style="text;whiteSpace=wrap;html=1;" vertex="1" parent="1">
          <mxGeometry x="430" y="380" width="50" height="40" as="geometry" />
        </mxCell>
        <mxCell id="SGj652YnKcZlrUeCalTC-4" value="&lt;span style=&quot;color: rgb(0, 0, 0); font-family: Helvetica; font-size: 12px; font-style: normal; font-variant-ligatures: normal; font-variant-caps: normal; font-weight: 400; letter-spacing: normal; orphans: 2; text-align: center; text-indent: 0px; text-transform: none; widows: 2; word-spacing: 0px; -webkit-text-stroke-width: 0px; background-color: rgb(251, 251, 251); text-decoration-thickness: initial; text-decoration-style: initial; text-decoration-color: initial; float: none; display: inline !important;&quot;&gt;0.. 1&lt;/span&gt;" style="text;whiteSpace=wrap;html=1;" vertex="1" parent="1">
          <mxGeometry x="270" y="380" width="50" height="40" as="geometry" />
        </mxCell>
      </root>
    </mxGraphModel>
  </diagram>
  <diagram id="4lFqH0oAblWWIVp_ROXm" name="Página-5">
    <mxGraphModel dx="643" dy="689" grid="1" gridSize="10" guides="1" tooltips="1" connect="1" arrows="1" fold="1" page="1" pageScale="1" pageWidth="827" pageHeight="1169" math="0" shadow="0">
      <root>
        <mxCell id="0" />
        <mxCell id="1" parent="0" />
        <mxCell id="5onNhYeeKR1udMbhjDM8-1" value="Professor" style="swimlane;fontStyle=0;childLayout=stackLayout;horizontal=1;startSize=26;fillColor=none;horizontalStack=0;resizeParent=1;resizeParentMax=0;resizeLast=0;collapsible=1;marginBottom=0;whiteSpace=wrap;html=1;" vertex="1" parent="1">
          <mxGeometry x="510" y="380" width="140" height="104" as="geometry" />
        </mxCell>
        <mxCell id="5onNhYeeKR1udMbhjDM8-2" value="+ nome: string" style="text;strokeColor=none;fillColor=none;align=left;verticalAlign=top;spacingLeft=4;spacingRight=4;overflow=hidden;rotatable=0;points=[[0,0.5],[1,0.5]];portConstraint=eastwest;whiteSpace=wrap;html=1;" vertex="1" parent="5onNhYeeKR1udMbhjDM8-1">
          <mxGeometry y="26" width="140" height="26" as="geometry" />
        </mxCell>
        <mxCell id="5onNhYeeKR1udMbhjDM8-3" value="+ num_telemovel" style="text;strokeColor=none;fillColor=none;align=left;verticalAlign=top;spacingLeft=4;spacingRight=4;overflow=hidden;rotatable=0;points=[[0,0.5],[1,0.5]];portConstraint=eastwest;whiteSpace=wrap;html=1;" vertex="1" parent="5onNhYeeKR1udMbhjDM8-1">
          <mxGeometry y="52" width="140" height="26" as="geometry" />
        </mxCell>
        <mxCell id="5onNhYeeKR1udMbhjDM8-4" value="+ valor_hora_aula: float" style="text;strokeColor=none;fillColor=none;align=left;verticalAlign=top;spacingLeft=4;spacingRight=4;overflow=hidden;rotatable=0;points=[[0,0.5],[1,0.5]];portConstraint=eastwest;whiteSpace=wrap;html=1;" vertex="1" parent="5onNhYeeKR1udMbhjDM8-1">
          <mxGeometry y="78" width="140" height="26" as="geometry" />
        </mxCell>
        <mxCell id="5onNhYeeKR1udMbhjDM8-6" value="Curso" style="swimlane;fontStyle=0;childLayout=stackLayout;horizontal=1;startSize=26;fillColor=none;horizontalStack=0;resizeParent=1;resizeParentMax=0;resizeLast=0;collapsible=1;marginBottom=0;whiteSpace=wrap;html=1;" vertex="1" parent="1">
          <mxGeometry x="200" y="380" width="180" height="154" as="geometry" />
        </mxCell>
        <mxCell id="5onNhYeeKR1udMbhjDM8-7" value="+ id_curso" style="text;strokeColor=none;fillColor=none;align=left;verticalAlign=top;spacingLeft=4;spacingRight=4;overflow=hidden;rotatable=0;points=[[0,0.5],[1,0.5]];portConstraint=eastwest;whiteSpace=wrap;html=1;" vertex="1" parent="5onNhYeeKR1udMbhjDM8-6">
          <mxGeometry y="26" width="180" height="26" as="geometry" />
        </mxCell>
        <mxCell id="5onNhYeeKR1udMbhjDM8-9" value="+ carga_horaria: int&lt;br&gt;&lt;br&gt;+ contudo_prog: string&lt;br&gt;&lt;br&gt;+ valor_curso: float" style="text;strokeColor=none;fillColor=none;align=left;verticalAlign=top;spacingLeft=4;spacingRight=4;overflow=hidden;rotatable=0;points=[[0,0.5],[1,0.5]];portConstraint=eastwest;whiteSpace=wrap;html=1;" vertex="1" parent="5onNhYeeKR1udMbhjDM8-6">
          <mxGeometry y="52" width="180" height="102" as="geometry" />
        </mxCell>
        <mxCell id="5onNhYeeKR1udMbhjDM8-10" value="info_curso" style="swimlane;fontStyle=0;childLayout=stackLayout;horizontal=1;startSize=26;fillColor=none;horizontalStack=0;resizeParent=1;resizeParentMax=0;resizeLast=0;collapsible=1;marginBottom=0;whiteSpace=wrap;html=1;" vertex="1" parent="1">
          <mxGeometry x="380" y="585" width="180" height="160" as="geometry" />
        </mxCell>
        <mxCell id="5onNhYeeKR1udMbhjDM8-11" value="+ horario_inicio: datetime" style="text;strokeColor=none;fillColor=none;align=left;verticalAlign=top;spacingLeft=4;spacingRight=4;overflow=hidden;rotatable=0;points=[[0,0.5],[1,0.5]];portConstraint=eastwest;whiteSpace=wrap;html=1;" vertex="1" parent="5onNhYeeKR1udMbhjDM8-10">
          <mxGeometry y="26" width="180" height="26" as="geometry" />
        </mxCell>
        <mxCell id="5onNhYeeKR1udMbhjDM8-12" value="+ horario_termino: datetime" style="text;strokeColor=none;fillColor=none;align=left;verticalAlign=top;spacingLeft=4;spacingRight=4;overflow=hidden;rotatable=0;points=[[0,0.5],[1,0.5]];portConstraint=eastwest;whiteSpace=wrap;html=1;" vertex="1" parent="5onNhYeeKR1udMbhjDM8-10">
          <mxGeometry y="52" width="180" height="26" as="geometry" />
        </mxCell>
        <mxCell id="5onNhYeeKR1udMbhjDM8-13" value="+ data_inicio: date&lt;br&gt;&lt;br&gt;+data_termino: date&lt;br&gt;&lt;br&gt;+id_curso: int" style="text;strokeColor=none;fillColor=none;align=left;verticalAlign=top;spacingLeft=4;spacingRight=4;overflow=hidden;rotatable=0;points=[[0,0.5],[1,0.5]];portConstraint=eastwest;whiteSpace=wrap;html=1;" vertex="1" parent="5onNhYeeKR1udMbhjDM8-10">
          <mxGeometry y="78" width="180" height="82" as="geometry" />
        </mxCell>
        <mxCell id="5onNhYeeKR1udMbhjDM8-16" style="edgeStyle=orthogonalEdgeStyle;rounded=0;orthogonalLoop=1;jettySize=auto;html=1;entryX=1;entryY=0.5;entryDx=0;entryDy=0;" edge="1" parent="1" source="5onNhYeeKR1udMbhjDM8-2" target="5onNhYeeKR1udMbhjDM8-7">
          <mxGeometry relative="1" as="geometry" />
        </mxCell>
        <mxCell id="5onNhYeeKR1udMbhjDM8-17" value="" style="endArrow=none;html=1;rounded=0;exitX=0.5;exitY=0;exitDx=0;exitDy=0;" edge="1" parent="1" source="5onNhYeeKR1udMbhjDM8-10">
          <mxGeometry width="50" height="50" relative="1" as="geometry">
            <mxPoint x="390" y="470" as="sourcePoint" />
            <mxPoint x="470" y="420" as="targetPoint" />
          </mxGeometry>
        </mxCell>
      </root>
    </mxGraphModel>
  </diagram>
</mxfile>
